<svg id="Capa_1" data-name="Capa 1" xmlns="http://www.w3.org/2000/svg" viewBox="0 0 200 200"><defs><style>.cls-1{fill:#fff;}.cls-2{fill:#be1818;}.cls-3{fill:#18a452;}.cls-4{fill:#fbca14;}.cls-5{fill:#f7f6f0;}</style></defs><title>logo_tortilleria_la_esperanza</title><circle class="cls-1" cx="100" cy="100" r="84.45"/><path class="cls-2" d="M100,9a91,91,0,1,0,91,91A91,91,0,0,0,100,9Zm0,175.48A84.45,84.45,0,1,1,184.45,100,84.45,84.45,0,0,1,100,184.45Z"/><path class="cls-1" d="M139.91,130.84c-.07-.68-.13-1.35-.17-2a127.68,127.68,0,0,0-1.9-14,60,60,0,0,0-3.57-13.54,14,14,0,0,0-2.3-3.75,31.23,31.23,0,0,0-.34-6.36c-.69-4.13-2.56-6.32-4.46-7.47a70.48,70.48,0,0,0,.61-9.72A9.68,9.68,0,0,0,125,66.77a8.2,8.2,0,0,0-1.87-1.34c.06-1.5.07-2.92.05-4.2a8.4,8.4,0,0,0-4-7.21,23.57,23.57,0,0,0,.16-4.81,3.85,3.85,0,0,1,0-.48,13,13,0,0,0-.77-5.32,8.34,8.34,0,0,0-3.26-4.13,13.55,13.55,0,0,0-2.77-8.36,7.68,7.68,0,0,0-13.45,2.93,20.75,20.75,0,0,0-1.84,1,15.33,15.33,0,0,0-1.82-1,7.67,7.67,0,0,0-5.52-5.5A8,8,0,0,0,80.64,33a17,17,0,0,0-1.3,5.24c0,.23,0,.46-.09.68s0,.26,0,.39A8.13,8.13,0,0,0,75.8,44l0,.18a10.68,10.68,0,0,0-.51,2.85,51.19,51.19,0,0,0,.15,6.8,8.45,8.45,0,0,0-4.06,6.85c0,.91,0,1.75,0,2.5v.95c0,.38,0,.76,0,1.14a8.88,8.88,0,0,0-4,5.33,11,11,0,0,0-.52,3.12A64.31,64.31,0,0,0,67.4,84.1,10,10,0,0,0,64.59,87a10.35,10.35,0,0,0-1.48,4.08,34,34,0,0,0-.43,6.33,11,11,0,0,0-1.54,2.26l-.09.18a22.42,22.42,0,0,0-1.73,4c-2.84,9.37-4.39,19.59-4.9,32.16a13.88,13.88,0,0,0,6.09,12.23c3.09,2.18,6.53,4.41,10.5,6.81,3.26,2,4.21,3.89,4.64,5.17.79,2.33,1.71,4.49,2.5,6.34,1.45,3.34,3.66,5.49,6.58,6.36s6,.3,9.16-1.74a23.73,23.73,0,0,0,3.4-2.75l.12.11a18.93,18.93,0,0,0,5.82,4,11,11,0,0,0,4.1.84,9.42,9.42,0,0,0,8.44-5.42,41.78,41.78,0,0,0,2.8-6.85,10.09,10.09,0,0,1,4.08-5.4c1.44-1,3-1.94,4.58-2.94s3.44-2.13,5.17-3.32l.62-.41c1.95-1.29,5.59-3.67,6.67-8.62A30.13,30.13,0,0,0,139.91,130.84Z"/><path class="cls-3" d="M124.49,101.21c1.83.1,2.59,1.51,3.18,2.88a52.86,52.86,0,0,1,3.09,12,120.33,120.33,0,0,1,1.81,13.22c.2,3.19.81,6.41.1,9.64-.53,2.42-2.59,3.44-4.34,4.64-3.18,2.19-6.58,4.07-9.76,6.26a17.31,17.31,0,0,0-6.84,9.13,35.51,35.51,0,0,1-2.31,5.69c-.83,1.58-1.84,1.94-3.49,1.27a15.34,15.34,0,0,1-4.27-3.19c-.64-.58-1.25-1.19-1.89-1.77-2.28-2.08-2.81-2.07-5.12.06A37.79,37.79,0,0,1,90,165.17c-2.51,1.63-4,1.28-5.23-1.44-.83-1.91-1.63-3.81-2.29-5.79a16.77,16.77,0,0,0-7.74-9c-3.42-2.07-6.79-4.22-10.06-6.53a6.68,6.68,0,0,1-3.06-6.07C62,126,63.2,115.85,66.19,106a18.53,18.53,0,0,1,1.33-3A3.1,3.1,0,0,1,70,101.19a3.67,3.67,0,0,1,1.46,3.23,45.1,45.1,0,0,1-.39,5.45,49.36,49.36,0,0,0-1,12.24c.21,4.14,1.05,8,4.35,11,1.82,1.61,3.65,3.21,5.52,4.76,1,.83,2.06,1.58,3.12,2.32.38.26.91.64,1.31.14s-.08-.89-.41-1.22-.57-.5-.86-.75a90.45,90.45,0,0,1-6.86-6.42,6.86,6.86,0,0,1-1.86-3.17c-.55-2.22.46-3.25,2.69-2.65a9.45,9.45,0,0,1,2.78,1.27A75.2,75.2,0,0,1,88,133.53c4,3.4,7.77,6.93,8.55,12.54.06.46.24,1.25.81,1.25s.59-.8.67-1.28a15.86,15.86,0,0,1,5.42-9.52l1.69-1.52c3.6-3.24,7.23-6.46,11.68-8.55.95-.45,2-.83,2.91-.12s.68,1.7.41,2.67a5.76,5.76,0,0,1-1.19,2.27,60.22,60.22,0,0,1-4.94,4.91c-1.15,1.06-2.35,2.07-3.51,3.12-.29.26-.6.6-.28,1a.82.82,0,0,0,1,.12,7,7,0,0,0,.81-.52,100,100,0,0,0,8.1-6.73,12,12,0,0,0,3.76-6.64c1.19-5.4.71-10.74-.4-16.07-.17-1.59-.42-3.17-.49-4.76S122.87,102.32,124.49,101.21Z"/><path class="cls-4" d="M71.11,109.87a45.1,45.1,0,0,0,.39-5.45A3.67,3.67,0,0,0,70,101.19a38.79,38.79,0,0,1,.15-8.88,3.55,3.55,0,0,1,.43-1.37c.34-.53.75-1.17,1.5-1s.91.7,1.08,1.3a51.65,51.65,0,0,1,1.29,7c.39,2.83.8,5.65,2.25,8.22a7.59,7.59,0,0,0,2.65,2.77,41.15,41.15,0,0,0,6.55,3.07,2.87,2.87,0,0,0,1.9-.09c-2.12-1.18-4-2.27-5.89-3.24a11.54,11.54,0,0,1-2.21-1.62,1.87,1.87,0,0,1-.54-2.22,1.65,1.65,0,0,1,1.77-.89c2.28.09,4.22,1.26,6.22,2.17,1.77.8,3.45,1.79,5.16,2.71a9.76,9.76,0,0,1,4.26,3.86c.42.79,1.09.86,1.46.07,1.55-3.27,4.88-4.13,7.64-5.7a27.6,27.6,0,0,1,6.2-2.76,6,6,0,0,1,1.09-.28c.91-.08,1.93-.26,2.39.84a2.14,2.14,0,0,1-.83,2.57c-2,1.74-4.48,2.54-6.71,3.81-.31.18-.75.18-.91.73a1.86,1.86,0,0,0,1.66,0,24.71,24.71,0,0,0,7.85-4.29,9.67,9.67,0,0,0,2.62-5.1c.78-3.1,1-6.28,1.58-9.41A14.05,14.05,0,0,1,121,92c.31-1,.42-2.49,1.72-2.4s1.66,1.56,1.85,2.74a33.92,33.92,0,0,1-.05,8.89c-1.62,1.11-1.55,2.81-1.47,4.46s.32,3.17.49,4.76c-.11.53-.23,1-.32,1.58-.44,2.47-1.48,4.51-4,5.44a37.92,37.92,0,0,1-4.13,1.41c-5.57,1.42-10.41,3.75-13.16,9.25-1.15,2.31-1.59,2.24-3.29.37-.88-1-1.6-1.31-2.53.06-1.09,1.62-2.2,1.51-3.24-.11-.29-.46-.59-.91-.85-1.38a13.76,13.76,0,0,0-8.37-6.85c-2.48-.72-4.91-1.6-7.37-2.42s-4.32-2.39-4.69-5.21C71.44,111.67,71.26,110.77,71.11,109.87Z"/><path class="cls-4" d="M112,86.2c1.48,0,3.11-1.36,3.8-3.09,1.18-3,1.25-6.13,1.59-9.23.12-1,0-2.27,1.43-2.31,1.55,0,1.73,1.32,1.74,2.44a63.68,63.68,0,0,1-.79,10.5,25.39,25.39,0,0,1-1.44,5.8,4.06,4.06,0,0,1-2.62,2.44c-2.1.69-4.22,1.35-6.26,2.19a9.84,9.84,0,0,0-5.5,4.75c-.81,1.66-2.35,1.74-3.42.16a27.71,27.71,0,0,1-3.26-5.29,34.2,34.2,0,0,1-3.24,5.08c-1.07,1.69-2.18,1.92-3.2.21-2.52-4.25-6.74-5.53-11-6.67a5.33,5.33,0,0,1-4.12-4.05A54.39,54.39,0,0,1,74,73.89a3.81,3.81,0,0,1,.2-1.11c.21-.68.45-1.45,1.33-1.39a1.61,1.61,0,0,1,1.54,1.45c.24,1.71.43,3.43.6,5.15a19.32,19.32,0,0,0,1.2,5.18,3.77,3.77,0,0,0,1.07,1.58c.29.24.58.61,1,.4s.09-.57.09-.87c0-1.2.56-1.77,1.8-1.7,1.75.09,3.16,1.07,4.7,1.69a29.51,29.51,0,0,1,5,2.81c1.89,1.24,2.39,3.42,3.56,5.15s1.39,1.86,2.29-.11c2.49-5.47,7.45-7.52,12.58-9.37.9-.33,1.92-.43,2.37.67a1.68,1.68,0,0,1-1,2.28A.49.49,0,0,0,112,86.2Zm-.83.44a1.47,1.47,0,0,0-.38-.07s-.09.16-.13.24a1.69,1.69,0,0,0,.36.12S111.14,86.77,111.21,86.64Zm-30.09-1a3.43,3.43,0,0,0,.39.12s.11-.21.1-.22a2.31,2.31,0,0,0-.35-.18Z"/><path class="cls-4" d="M78.5,64c0-1,0-2,0-2.92a1.24,1.24,0,0,1,1.23-1.26c.78-.06,1,.53,1.07,1.16.32,2.19.62,4.38,1,6.56A7.64,7.64,0,0,0,83,70.34a.82.82,0,0,0,1,.46c.46-.13.24-.5.22-.8C84,68.49,85,68.33,86,68.67c4.58,1.48,8.75,3.52,10.55,8.48a2.57,2.57,0,0,1-.27,2.46c-.66,1-1.33,2-2,2.92s-1.48,1-2.11,0c-2-3.14-5.13-4.47-8.58-5.29a5,5,0,0,1-4-4.27A47,47,0,0,1,78.5,64Z"/><path class="cls-4" d="M105.33,73.17c5.24-.54,7.74-3.11,8.06-8.09.09-1.29.29-2.57.45-3.86.08-.63.29-1.21,1-1.19s1.1.59,1.11,1.32a39.8,39.8,0,0,1-1.55,13,3.63,3.63,0,0,1-2.54,2.46c-1.63.55-3.28,1.08-4.89,1.71A8.6,8.6,0,0,0,102.88,82c-1.12,1.7-1.78,1.67-3,0-3.16-4.49-2.27-3.54-.17-7.7.93-1.82,2.64-2.64,4.32-3.49,1.2-.61,2.46-1.11,3.69-1.68.78-.36,1.67-.66,2.15.25s-.32,1.43-1,1.88a6.87,6.87,0,0,1-2.47,1.18A1.74,1.74,0,0,0,105.33,73.17Z"/><path class="cls-4" d="M112.18,49.72a28.84,28.84,0,0,1-.3,5.17c-.2,2.66-1.27,3.85-3.89,4.47a10.36,10.36,0,0,0-5.73,3.41c-1.29,1.52-1.93,1.41-3-.31a5.38,5.38,0,0,1,2-7.58,19.63,19.63,0,0,1,5.1-2.44c.76-.19,1.42-.28,1.57.77,0,.33-.13.88.44.86s.72-.41.9-.83a12.44,12.44,0,0,0,.68-5,6.34,6.34,0,0,1,.18-2.25c.16-.41.29-.85.84-.84s.72.4.88.82C112.37,47.22,112.1,48.48,112.18,49.72Z"/><path class="cls-4" d="M86.89,54.28c-.08-.6-.67-1.24,0-1.78s1.24-.18,1.84.08c2.7,1.21,5.49,2.21,7,5.17a4.53,4.53,0,0,1-1.58,6c-.74.41-1.18-.08-1.48-.56-1.46-2.34-3.74-3.35-6.27-3.93a4.41,4.41,0,0,1-3.62-4,40.41,40.41,0,0,1-.39-7.92,7.1,7.1,0,0,1,.32-1.42c.11-.4.35-.71.79-.69s.65.34.77.73a8.82,8.82,0,0,1,.33,2.56A10.17,10.17,0,0,0,85.25,53c.36.74.78,1.28,1.66,1.3.12.51.55.58,1,.67l1,.31h0l-1-.3C87.67,54.53,87.28,54.41,86.89,54.28Z"/><path class="cls-4" d="M86.35,40a14.49,14.49,0,0,1,.84-4.07c.17-.39.46-.8,1-.67s.36.61.34,1c-.06.86-.22,1.71-.25,2.57s.1,1.51,1.2,1a1.12,1.12,0,0,1,.31-.1c2.28-.37,6.85,3.16,7,5.43a4.62,4.62,0,0,1-2,3,1,1,0,0,1-1.18-.59A5.15,5.15,0,0,0,89.88,45C86.89,44.44,86.53,42.82,86.35,40Z"/><path class="cls-4" d="M106.35,38.83c-.1-.9-.21-1.81-.27-2.72,0-.3-.1-.7.28-.85s.6.16.8.39c1.34,1.54,1.32,6.58,0,8.17a3.5,3.5,0,0,1-2.15,1,7.71,7.71,0,0,0-3.67,2.2c-.49.5-.91,1.51-2,.8S97.59,45.18,98,44.35c1.06-2.41,3.17-3.56,5.41-4.55a1.71,1.71,0,0,1,1.57,0C106.24,40.63,106.37,39.89,106.35,38.83Z"/><path class="cls-5" d="M111.21,86.64c-.07.13-.12.29-.15.29a1.69,1.69,0,0,1-.36-.12c0-.08.08-.23.13-.24A1.47,1.47,0,0,1,111.21,86.64Z"/><path class="cls-5" d="M81.12,85.66l.14-.28a2.31,2.31,0,0,1,.35.18s-.08.23-.1.22A3.43,3.43,0,0,1,81.12,85.66Z"/><path class="cls-5" d="M87.85,55l1,.3h0l-1-.31Z"/><path class="cls-5" d="M88.85,55.25h0Z"/></svg>